<svg width="255" height="255" viewBox="0 0 255 255" fill="none" xmlns="http://www.w3.org/2000/svg">
<path d="M166.215 125.44C185.545 125.44 201.215 109.77 201.215 90.4405C201.215 71.1105 185.545 55.4405 166.215 55.4405C165.341 55.4405 164.476 55.4725 163.618 55.5353C179.063 56.7596 191.215 69.6809 191.215 85.4405C191.215 102.009 177.783 115.44 161.215 115.44C145.455 115.44 132.534 103.289 131.31 87.8438C131.247 88.7011 131.215 89.5671 131.215 90.4405C131.215 109.77 146.885 125.44 166.215 125.44Z" fill="white"/>
<path d="M87.2149 125.44C67.8849 125.44 52.2149 109.77 52.2149 90.4405C52.2149 71.1105 67.8849 55.4405 87.2149 55.4405C88.0883 55.4405 88.9542 55.4724 89.8115 55.5353C74.3667 56.7596 62.2149 69.6809 62.2149 85.4405C62.2149 102.009 75.6463 115.44 92.2149 115.44C107.974 115.44 120.896 103.289 122.12 87.8438C122.183 88.7011 122.215 89.5671 122.215 90.4405C122.215 109.77 106.545 125.44 87.2149 125.44Z" fill="white"/>
<path d="M125.422 120.818C126.157 121.302 128.273 121.302 129.007 120.818L136.178 115.328C136.836 113.998 135.869 112.44 134.386 112.44H120.044C118.561 112.44 117.593 113.998 118.251 115.328L125.422 120.818Z" fill="white"/>
<path d="M122.215 85.4405C122.215 90.9633 117.738 95.4405 112.215 95.4405C106.692 95.4405 102.215 90.9633 102.215 85.4405C102.215 79.9176 106.692 75.4405 112.215 75.4405C117.738 75.4405 122.215 79.9176 122.215 85.4405Z" fill="white"/>
<path d="M151.215 85.4405C151.215 90.9633 146.738 95.4405 141.215 95.4405C135.692 95.4405 131.215 90.9633 131.215 85.4405C131.215 79.9176 135.692 75.4405 141.215 75.4405C146.738 75.4405 151.215 79.9176 151.215 85.4405Z" fill="white"/>
<path d="M107.473 63.3755C109.401 64.9268 107.348 67.9085 105.211 66.6611L74.9908 49.0248C73.986 48.4384 73.6918 47.1216 74.3514 46.1634L77.3091 41.8668C77.9687 40.9086 79.3038 40.7134 80.2102 41.4426L107.473 63.3755Z" fill="white"/>
<path d="M147.444 66.6593C145.306 67.9066 143.254 64.9248 145.182 63.3736L172.445 41.4418C173.352 40.7126 174.687 40.9079 175.346 41.8662L178.304 46.1629C178.963 47.1211 178.669 48.4379 177.664 49.0242L147.444 66.6593Z" fill="white"/>
<path fill-rule="evenodd" clip-rule="evenodd" d="M197.382 106.381C205.353 115.095 210.215 126.7 210.215 139.44C210.215 153.132 204.599 165.513 195.545 174.404C192.141 181.904 187.538 188.745 181.981 194.682C204.32 186.281 220.215 164.717 220.215 139.44C220.215 122.099 212.733 106.504 200.821 95.7093C200.249 99.5 199.068 103.091 197.382 106.381Z" fill="white"/>
<path fill-rule="evenodd" clip-rule="evenodd" d="M52.6088 95.7093C40.6968 106.504 33.2149 122.099 33.2149 139.44C33.2149 165.285 49.8325 187.249 72.9658 195.229C67.5948 189.604 63.0896 183.146 59.6643 176.067C49.5724 167.092 43.2149 154.009 43.2149 139.44C43.2149 126.7 48.0771 115.095 56.0473 106.381C54.3615 103.091 53.1812 99.5 52.6088 95.7093Z" fill="white"/>
<path d="M192.215 143.44C192.215 134.578 190.441 126.13 187.23 118.432C190.106 116.269 192.639 113.673 194.73 110.74C199.525 120.623 202.215 131.718 202.215 143.44C202.215 162.82 194.864 180.484 182.799 193.794C178.674 193.261 174.403 192.786 170.003 192.372C183.617 180.457 192.215 162.953 192.215 143.44Z" fill="white"/>
<path d="M84.4267 192.372C70.8128 180.457 62.2149 162.953 62.2149 143.44C62.2149 134.793 63.9034 126.54 66.9688 118.994C64.0517 116.922 61.4658 114.414 59.3061 111.565C54.7573 121.239 52.2149 132.043 52.2149 143.44C52.2149 162.82 59.5655 180.484 71.6307 193.794C75.7557 193.261 80.0272 192.786 84.4267 192.372Z" fill="white"/>
<path fill-rule="evenodd" clip-rule="evenodd" d="M243.048 213.476C222.63 206.362 178.662 201.44 127.715 201.44C75.5871 201.44 30.7657 206.593 11 213.974C20.7288 200.602 69.0587 190.44 127.215 190.44C184.647 190.44 232.496 200.35 243.048 213.476Z" fill="white"/>
<path d="M125.552 69.202C126.453 69.6988 127.547 69.6988 128.448 69.202L142.968 61.2C144.04 60.609 143.621 58.9779 142.396 58.9779C140.794 58.9779 130.905 63.7016 127 63.7016C123.095 63.7016 112.67 58.9779 111.604 58.9779C110.379 58.9779 109.96 60.609 111.032 61.2L125.552 69.202Z" fill="white"/>
<path d="M100.696 231.264C98.984 231.264 97.48 230.904 96.184 230.184C94.888 229.448 93.88 228.424 93.16 227.112C92.456 225.8 92.104 224.272 92.104 222.528C92.104 221.216 92.304 220.024 92.704 218.952C93.12 217.88 93.704 216.96 94.456 216.192C95.224 215.424 96.136 214.84 97.192 214.44C98.248 214.024 99.416 213.816 100.696 213.816C102.408 213.816 103.904 214.176 105.184 214.896C106.48 215.616 107.488 216.632 108.208 217.944C108.928 219.24 109.288 220.768 109.288 222.528C109.288 223.84 109.08 225.032 108.664 226.104C108.264 227.176 107.68 228.104 106.912 228.888C106.16 229.656 105.256 230.248 104.2 230.664C103.144 231.064 101.976 231.264 100.696 231.264ZM100.696 227.568C101.544 227.568 102.264 227.368 102.856 226.968C103.448 226.568 103.904 225.992 104.224 225.24C104.544 224.488 104.704 223.584 104.704 222.528C104.704 220.944 104.352 219.712 103.648 218.832C102.944 217.952 101.96 217.512 100.696 217.512C99.864 217.512 99.144 217.712 98.536 218.112C97.944 218.496 97.488 219.064 97.168 219.816C96.848 220.552 96.688 221.456 96.688 222.528C96.688 224.112 97.04 225.352 97.744 226.248C98.448 227.128 99.432 227.568 100.696 227.568ZM116.743 231.216C116.199 231.216 115.727 231.088 115.327 230.832C114.927 230.56 114.607 230.144 114.367 229.584L111.103 221.688C110.895 221.192 110.823 220.744 110.887 220.344C110.951 219.928 111.143 219.6 111.463 219.36C111.799 219.104 112.255 218.976 112.831 218.976C113.327 218.976 113.735 219.096 114.055 219.336C114.375 219.56 114.663 220.008 114.919 220.68L117.223 226.728H116.719L119.143 220.224C119.303 219.792 119.519 219.48 119.791 219.288C120.079 219.08 120.439 218.976 120.871 218.976C121.335 218.976 121.703 219.08 121.975 219.288C122.247 219.496 122.463 219.808 122.623 220.224L125.047 226.728H124.615L126.943 220.536C127.167 219.928 127.455 219.52 127.807 219.312C128.159 219.088 128.535 218.976 128.935 218.976C129.479 218.976 129.895 219.104 130.183 219.36C130.471 219.616 130.631 219.952 130.663 220.368C130.711 220.784 130.631 221.232 130.423 221.712L127.183 229.56C126.959 230.12 126.647 230.536 126.247 230.808C125.847 231.08 125.375 231.216 124.831 231.216C124.271 231.216 123.791 231.08 123.391 230.808C123.007 230.536 122.695 230.12 122.455 229.56L119.815 222.96H121.567L119.071 229.512C118.847 230.088 118.543 230.52 118.159 230.808C117.775 231.08 117.303 231.216 116.743 231.216ZM136.931 231.264C135.395 231.264 134.259 230.856 133.523 230.04C132.803 229.208 132.443 227.96 132.443 226.296V216.024C132.443 215.32 132.627 214.784 132.995 214.416C133.363 214.048 133.883 213.864 134.555 213.864C135.243 213.864 135.771 214.048 136.139 214.416C136.523 214.784 136.715 215.32 136.715 216.024V226.152C136.715 226.744 136.827 227.176 137.051 227.448C137.291 227.72 137.595 227.856 137.963 227.856C138.075 227.856 138.187 227.848 138.299 227.832C138.427 227.8 138.563 227.776 138.707 227.76C138.979 227.76 139.179 227.864 139.307 228.072C139.451 228.28 139.523 228.704 139.523 229.344C139.523 229.904 139.411 230.328 139.187 230.616C138.963 230.888 138.619 231.064 138.155 231.144C138.027 231.16 137.843 231.184 137.603 231.216C137.363 231.248 137.139 231.264 136.931 231.264ZM147.102 231.264C145.662 231.264 144.414 231.016 143.358 230.52C142.318 230.008 141.518 229.288 140.958 228.36C140.398 227.432 140.118 226.336 140.118 225.072C140.118 223.856 140.382 222.792 140.91 221.88C141.454 220.952 142.19 220.232 143.118 219.72C144.062 219.192 145.134 218.928 146.334 218.928C147.214 218.928 148.014 219.072 148.734 219.36C149.454 219.632 150.07 220.04 150.582 220.584C151.094 221.112 151.478 221.752 151.734 222.504C152.006 223.256 152.142 224.096 152.142 225.024C152.142 225.344 152.054 225.584 151.878 225.744C151.702 225.888 151.422 225.96 151.038 225.96H143.694V223.944H149.022L148.638 224.256C148.638 223.664 148.558 223.184 148.398 222.816C148.238 222.448 147.998 222.168 147.678 221.976C147.374 221.784 146.99 221.688 146.526 221.688C146.03 221.688 145.598 221.808 145.23 222.048C144.878 222.272 144.606 222.608 144.414 223.056C144.222 223.504 144.126 224.064 144.126 224.736V224.952C144.126 226.088 144.374 226.904 144.87 227.4C145.382 227.88 146.166 228.12 147.222 228.12C147.574 228.12 147.974 228.08 148.422 228C148.886 227.904 149.326 227.776 149.742 227.616C150.158 227.456 150.518 227.432 150.822 227.544C151.126 227.64 151.358 227.816 151.518 228.072C151.694 228.312 151.79 228.592 151.806 228.912C151.822 229.216 151.75 229.52 151.59 229.824C151.43 230.112 151.166 230.336 150.798 230.496C150.238 230.752 149.638 230.944 148.998 231.072C148.374 231.2 147.742 231.264 147.102 231.264ZM160.081 231.264C158.881 231.264 157.889 231.08 157.105 230.712C156.337 230.344 155.761 229.792 155.377 229.056C154.993 228.304 154.801 227.368 154.801 226.248V222.336H153.985C153.473 222.336 153.073 222.2 152.785 221.928C152.513 221.656 152.377 221.264 152.377 220.752C152.377 220.24 152.513 219.856 152.785 219.6C153.073 219.328 153.473 219.192 153.985 219.192H154.801V217.704C154.801 217 154.985 216.464 155.353 216.096C155.721 215.728 156.249 215.544 156.937 215.544C157.625 215.544 158.153 215.728 158.521 216.096C158.889 216.464 159.073 217 159.073 217.704V219.192H161.041C161.569 219.192 161.969 219.328 162.241 219.6C162.529 219.856 162.673 220.24 162.673 220.752C162.673 221.264 162.529 221.656 162.241 221.928C161.969 222.2 161.569 222.336 161.041 222.336H159.073V226.104C159.073 226.696 159.209 227.136 159.481 227.424C159.769 227.696 160.217 227.832 160.825 227.832C161.049 227.832 161.265 227.808 161.473 227.76C161.681 227.712 161.873 227.688 162.049 227.688C162.305 227.672 162.513 227.752 162.673 227.928C162.833 228.088 162.913 228.464 162.913 229.056C162.913 229.536 162.841 229.944 162.697 230.28C162.553 230.6 162.297 230.832 161.929 230.976C161.705 231.056 161.401 231.12 161.017 231.168C160.633 231.232 160.321 231.264 160.081 231.264Z" fill="white"/>
</svg>
