<svg xmlns="http://www.w3.org/2000/svg" version="1.1" x="0px" y="0px" viewBox="0 0 100 125"
    enable-background="new 0 0 100 100" xml:space="preserve"><g><path d="M91.0720367,29.8093987H9.6109276c-2.3541369,0-4.2693481,1.9152107-4.2693481,4.2695389v31.8364143   c0,2.354332,1.9152112,4.2695389,4.2693481,4.2695389h81.4611053c2.3541412,0,4.2695465-1.9152069,4.2695465-4.2695389V34.0789375   C95.3415833,31.7246094,93.426178,29.8093987,91.0720367,29.8093987z M94.6362381,65.9153519   c0,1.9653168-1.598877,3.5642014-3.5642014,3.5642014H9.6109276c-1.9653192,0-3.5643883-1.5988846-3.5643883-3.5642014V34.0789375   c0-1.9653168,1.5990691-3.5641975,3.5643883-3.5641975h81.4611053c1.9653244,0,3.5642014,1.5988808,3.5642014,3.5641975V65.9153519   z"/><path
    d="M11.4370146,41.5898399h3.7870083c0.7921705,0,1.4366941-0.6449051,1.4366941-1.4370766v-3.7868195   c0-0.7921677-0.6445236-1.4370766-1.4366941-1.4370766h-3.7870083c-0.7921715,0-1.4366951,0.6449089-1.4366951,1.4370766v3.7868195   C10.0003195,40.9449348,10.6448431,41.5898399,11.4370146,41.5898399z M10.7052794,36.3659439   c0-0.4035416,0.3281908-0.7317352,0.7317352-0.7317352h3.7870083c0.4035444,0,0.7317352,0.3281937,0.7317352,0.7317352v3.7868195   c0,0.4035416-0.3281908,0.7317352-0.7317352,0.7317352h-3.7870083c-0.4035444,0-0.7317352-0.3281937-0.7317352-0.7317352   V36.3659439z" /><path
    d="M19.6624393,41.5898399h3.7870064c0.7921715,0,1.4366951-0.6449051,1.4366951-1.4370766v-3.7868195   c0-0.7921677-0.6445236-1.4370766-1.4366951-1.4370766h-3.7870064c-0.7921715,0-1.4366951,0.6449089-1.4366951,1.4370766v3.7868195   C18.2257442,40.9449348,18.8702679,41.5898399,19.6624393,41.5898399z M18.9307041,36.3659439   c0-0.4035416,0.3281898-0.7317352,0.7317352-0.7317352h3.7870064c0.4035454,0,0.7317352,0.3281937,0.7317352,0.7317352v3.7868195   c0,0.4035416-0.3281898,0.7317352-0.7317352,0.7317352h-3.7870064c-0.4035454,0-0.7317352-0.3281937-0.7317352-0.7317352   V36.3659439z" /><path
    d="M27.8878632,41.5898399h3.7870064c0.7921715,0,1.4366951-0.6449051,1.4366951-1.4370766v-3.7868195   c0-0.7921677-0.6445236-1.4370766-1.4366951-1.4370766h-3.7870064c-0.7921715,0-1.4366951,0.6449089-1.4366951,1.4370766v3.7868195   C26.4511681,40.9449348,27.0956917,41.5898399,27.8878632,41.5898399z M27.1561279,36.3659439   c0-0.4035416,0.3281898-0.7317352,0.7317352-0.7317352h3.7870064c0.4035454,0,0.7317352,0.3281937,0.7317352,0.7317352v3.7868195   c0,0.4035416-0.3281898,0.7317352-0.7317352,0.7317352h-3.7870064c-0.4035454,0-0.7317352-0.3281937-0.7317352-0.7317352   V36.3659439z" /><path
    d="M36.1132851,41.5898399h3.7870102c0.7921715,0,1.4366951-0.6449051,1.4366951-1.4370766v-3.7868195   c0-0.7921677-0.6445236-1.4370766-1.4366951-1.4370766h-3.7870102c-0.7921715,0-1.4366951,0.6449089-1.4366951,1.4370766v3.7868195   C34.67659,40.9449348,35.3211136,41.5898399,36.1132851,41.5898399z M35.3815498,36.3659439   c0-0.4035416,0.3281937-0.7317352,0.7317352-0.7317352h3.7870102c0.4035454,0,0.7317352,0.3281937,0.7317352,0.7317352v3.7868195   c0,0.4035416-0.3281898,0.7317352-0.7317352,0.7317352h-3.7870102c-0.4035416,0-0.7317352-0.3281937-0.7317352-0.7317352   V36.3659439z" /><path
    d="M44.3387108,41.5898399h3.7870064c0.7921715,0,1.4366951-0.6449051,1.4366951-1.4370766v-3.7868195   c0-0.7921677-0.6445236-1.4370766-1.4366951-1.4370766h-3.7870064c-0.7921715,0-1.4366951,0.6449089-1.4366951,1.4370766v3.7868195   C42.9020157,40.9449348,43.5465393,41.5898399,44.3387108,41.5898399z M43.6069756,36.3659439   c0-0.4035416,0.3281898-0.7317352,0.7317352-0.7317352h3.7870064c0.4035454,0,0.7317352,0.3281937,0.7317352,0.7317352v3.7868195   c0,0.4035416-0.3281898,0.7317352-0.7317352,0.7317352h-3.7870064c-0.4035454,0-0.7317352-0.3281937-0.7317352-0.7317352   V36.3659439z" /><path
    d="M52.5641327,41.5898399h3.7870102c0.7921715,0,1.4366951-0.6449051,1.4366951-1.4370766v-3.7868195   c0-0.7921677-0.6445236-1.4370766-1.4366951-1.4370766h-3.7870102c-0.7921677,0-1.4366951,0.6449089-1.4366951,1.4370766v3.7868195   C51.1274376,40.9449348,51.771965,41.5898399,52.5641327,41.5898399z M51.8323975,36.3659439   c0-0.4035416,0.3281937-0.7317352,0.7317352-0.7317352h3.7870102c0.4035454,0,0.7317352,0.3281937,0.7317352,0.7317352v3.7868195   c0,0.4035416-0.3281898,0.7317352-0.7317352,0.7317352h-3.7870102c-0.4035416,0-0.7317352-0.3281937-0.7317352-0.7317352   V36.3659439z" /><path
    d="M69.0149841,41.5898399h3.7870026c0.7921753,0,1.4366989-0.6449051,1.4366989-1.4370766v-3.7868195   c0-0.7921677-0.6445236-1.4370766-1.4366989-1.4370766h-3.7870026c-0.7921753,0-1.4366989,0.6449089-1.4366989,1.4370766v3.7868195   C67.5782852,40.9449348,68.2228088,41.5898399,69.0149841,41.5898399z M68.2832489,36.3659439   c0-0.4035416,0.328186-0.7317352,0.7317352-0.7317352h3.7870026c0.4035492,0,0.7317352,0.3281937,0.7317352,0.7317352v3.7868195   c0,0.4035416-0.328186,0.7317352-0.7317352,0.7317352h-3.7870026c-0.4035492,0-0.7317352-0.3281937-0.7317352-0.7317352V36.3659439   z" /><path
    d="M81.0274124,34.9288673h-3.7870026c-0.7921753,0-1.4366989,0.6449089-1.4366989,1.4370766v3.7868195   c0,0.7921715,0.6445236,1.4370766,1.4366989,1.4370766h3.7870026c0.7921753,0,1.4366989-0.6449051,1.4366989-1.4370766v-3.7868195   C82.4641113,35.5737762,81.8195877,34.9288673,81.0274124,34.9288673z M81.7591476,40.1527634   c0,0.4035416-0.328186,0.7317352-0.7317352,0.7317352h-3.7870026c-0.4035492,0-0.7317352-0.3281937-0.7317352-0.7317352v-3.7868195   c0-0.4035416,0.328186-0.7317352,0.7317352-0.7317352h3.7870026c0.4035492,0,0.7317352,0.3281937,0.7317352,0.7317352V40.1527634z" /><path
    d="M11.4370146,49.4235764h8.0955629c0.7921715,0,1.4366951-0.6449051,1.4366951-1.4370766v-3.7868156   c0-0.7921715-0.6445236-1.4370804-1.4366951-1.4370804h-8.0955629c-0.7921715,0-1.4366951,0.6449089-1.4366951,1.4370804v3.7868156   C10.0003195,48.7786713,10.6448431,49.4235764,11.4370146,49.4235764z M10.7052794,44.1996841   c0-0.4035454,0.3281908-0.7317352,0.7317352-0.7317352h8.0955629c0.4035454,0,0.7317352,0.3281898,0.7317352,0.7317352v3.7868156   c0,0.4035454-0.3281898,0.7317352-0.7317352,0.7317352h-8.0955629c-0.4035444,0-0.7317352-0.3281898-0.7317352-0.7317352   V44.1996841z" /><path
    d="M29.1946964,47.9864998v-3.7868156c0-0.7921715-0.6445236-1.4370804-1.4366951-1.4370804h-3.7870064   c-0.7921715,0-1.4366951,0.6449089-1.4366951,1.4370804v3.7868156c0,0.7921715,0.6445236,1.4370766,1.4366951,1.4370766h3.7870064   C28.5501728,49.4235764,29.1946964,48.7786713,29.1946964,47.9864998z M23.2392597,47.9864998v-3.7868156   c0-0.4035454,0.3281898-0.7317352,0.7317352-0.7317352h3.7870064c0.4035454,0,0.7317352,0.3281898,0.7317352,0.7317352v3.7868156   c0,0.4035454-0.3281898,0.7317352-0.7317352,0.7317352h-3.7870064   C23.5674496,48.718235,23.2392597,48.3900452,23.2392597,47.9864998z" /><path
    d="M37.4201202,47.9864998v-3.7868156c0-0.7921715-0.6445236-1.4370804-1.4366951-1.4370804h-3.7870064   c-0.7921715,0-1.4366951,0.6449089-1.4366951,1.4370804v3.7868156c0,0.7921715,0.6445236,1.4370766,1.4366951,1.4370766h3.7870064   C36.7755966,49.4235764,37.4201202,48.7786713,37.4201202,47.9864998z M31.4646835,47.9864998v-3.7868156   c0-0.4035454,0.3281898-0.7317352,0.7317352-0.7317352h3.7870064c0.4035454,0,0.7317352,0.3281898,0.7317352,0.7317352v3.7868156   c0,0.4035454-0.3281898,0.7317352-0.7317352,0.7317352h-3.7870064   C31.7928734,48.718235,31.4646835,48.3900452,31.4646835,47.9864998z" /><path
    d="M45.645546,47.9864998v-3.7868156c0-0.7921715-0.6445236-1.4370804-1.4366951-1.4370804h-3.7870102   c-0.7921715,0-1.4366951,0.6449089-1.4366951,1.4370804v3.7868156c0,0.7921715,0.6445236,1.4370766,1.4366951,1.4370766h3.7870102   C45.0010223,49.4235764,45.645546,48.7786713,45.645546,47.9864998z M39.6901054,47.9864998v-3.7868156   c0-0.4035454,0.3281937-0.7317352,0.7317352-0.7317352h3.7870102c0.4035416,0,0.7317352,0.3281898,0.7317352,0.7317352v3.7868156   c0,0.4035454-0.3281937,0.7317352-0.7317352,0.7317352h-3.7870102   C40.0182991,48.718235,39.6901054,48.3900452,39.6901054,47.9864998z" /><path
    d="M53.8709679,47.9864998v-3.7868156c0-0.7921715-0.6445236-1.4370804-1.4366951-1.4370804h-3.7870064   c-0.7921715,0-1.4366951,0.6449089-1.4366951,1.4370804v3.7868156c0,0.7921715,0.6445236,1.4370766,1.4366951,1.4370766h3.7870064   C53.2264442,49.4235764,53.8709679,48.7786713,53.8709679,47.9864998z M47.9155312,47.9864998v-3.7868156   c0-0.4035454,0.3281898-0.7317352,0.7317352-0.7317352h3.7870064c0.4035454,0,0.7317352,0.3281898,0.7317352,0.7317352v3.7868156   c0,0.4035454-0.3281898,0.7317352-0.7317352,0.7317352h-3.7870064   C48.243721,48.718235,47.9155312,48.3900452,47.9155312,47.9864998z" /><path
    d="M62.0963936,47.9864998v-3.7868156c0-0.7921715-0.6445236-1.4370804-1.4366951-1.4370804h-3.7870102   c-0.7921715,0-1.4366951,0.6449089-1.4366951,1.4370804v3.7868156c0,0.7921715,0.6445236,1.4370766,1.4366951,1.4370766h3.7870102   C61.45187,49.4235764,62.0963936,48.7786713,62.0963936,47.9864998z M56.1409531,47.9864998v-3.7868156   c0-0.4035454,0.3281937-0.7317352,0.7317352-0.7317352h3.7870102c0.4035454,0,0.7317352,0.3281898,0.7317352,0.7317352v3.7868156   c0,0.4035454-0.3281898,0.7317352-0.7317352,0.7317352h-3.7870102   C56.4691467,48.718235,56.1409531,48.3900452,56.1409531,47.9864998z" /><path
    d="M81.0274124,42.7626038h-7.7038727c-0.7921753,0-1.4366989,0.6449089-1.4366989,1.4370804v3.7868156   c0,0.7921715,0.6445236,1.4370766,1.4366989,1.4370766h7.7038727c0.7921753,0,1.4366989-0.6449051,1.4366989-1.4370766v-3.7868156   C82.4641113,43.4075127,81.8195877,42.7626038,81.0274124,42.7626038z M81.7591476,47.9864998   c0,0.4035454-0.328186,0.7317352-0.7317352,0.7317352h-7.7038727c-0.4035492,0-0.7317352-0.3281898-0.7317352-0.7317352v-3.7868156   c0-0.4035454,0.328186-0.7317352,0.7317352-0.7317352h7.7038727c0.4035492,0,0.7317352,0.3281898,0.7317352,0.7317352V47.9864998z" /><path
    d="M23.4494457,50.596344H11.4370146c-0.7921715,0-1.4366951,0.6449051-1.4366951,1.4370766v3.7868156   c0,0.7921715,0.6445236,1.4370766,1.4366951,1.4370766h12.0124311c0.7921715,0,1.4366951-0.6449051,1.4366951-1.4370766v-3.7868156   C24.8861408,51.2412491,24.2416172,50.596344,23.4494457,50.596344z M24.181181,55.8202362   c0,0.4035454-0.3281898,0.7317352-0.7317352,0.7317352H11.4370146c-0.4035444,0-0.7317352-0.3281898-0.7317352-0.7317352   v-3.7868156c0-0.4035454,0.3281908-0.7317352,0.7317352-0.7317352h12.0124311c0.4035454,0,0.7317352,0.3281898,0.7317352,0.7317352   V55.8202362z" /><path
    d="M81.0274124,50.596344H69.0149841c-0.7921753,0-1.4366989,0.6449051-1.4366989,1.4370766v3.7868156   c0,0.7921715,0.6445236,1.4370766,1.4366989,1.4370766h12.0124283c0.7921753,0,1.4366989-0.6449051,1.4366989-1.4370766v-3.7868156   C82.4641113,51.2412491,81.8195877,50.596344,81.0274124,50.596344z M81.7591476,55.8202362   c0,0.4035454-0.328186,0.7317352-0.7317352,0.7317352H69.0149841c-0.4035492,0-0.7317352-0.3281898-0.7317352-0.7317352v-3.7868156   c0-0.4035454,0.328186-0.7317352,0.7317352-0.7317352h12.0124283c0.4035492,0,0.7317352,0.3281898,0.7317352,0.7317352V55.8202362z   " /><path
    d="M27.8878632,57.2573128h3.7870064c0.7921715,0,1.4366951-0.6449051,1.4366951-1.4370766v-3.7868156   c0-0.7921715-0.6445236-1.4370766-1.4366951-1.4370766h-3.7870064c-0.7921715,0-1.4366951,0.6449051-1.4366951,1.4370766v3.7868156   C26.4511681,56.6124077,27.0956917,57.2573128,27.8878632,57.2573128z M27.1561279,52.0334206   c0-0.4035454,0.3281898-0.7317352,0.7317352-0.7317352h3.7870064c0.4035454,0,0.7317352,0.3281898,0.7317352,0.7317352v3.7868156   c0,0.4035454-0.3281898,0.7317352-0.7317352,0.7317352h-3.7870064c-0.4035454,0-0.7317352-0.3281898-0.7317352-0.7317352   V52.0334206z" /><path
    d="M36.1132851,57.2573128h3.7870102c0.7921715,0,1.4366951-0.6449051,1.4366951-1.4370766v-3.7868156   c0-0.7921715-0.6445236-1.4370766-1.4366951-1.4370766h-3.7870102c-0.7921715,0-1.4366951,0.6449051-1.4366951,1.4370766v3.7868156   C34.67659,56.6124077,35.3211136,57.2573128,36.1132851,57.2573128z M35.3815498,52.0334206   c0-0.4035454,0.3281937-0.7317352,0.7317352-0.7317352h3.7870102c0.4035454,0,0.7317352,0.3281898,0.7317352,0.7317352v3.7868156   c0,0.4035454-0.3281898,0.7317352-0.7317352,0.7317352h-3.7870102c-0.4035416,0-0.7317352-0.3281898-0.7317352-0.7317352   V52.0334206z" /><path
    d="M44.3387108,57.2573128h3.7870064c0.7921715,0,1.4366951-0.6449051,1.4366951-1.4370766v-3.7868156   c0-0.7921715-0.6445236-1.4370766-1.4366951-1.4370766h-3.7870064c-0.7921715,0-1.4366951,0.6449051-1.4366951,1.4370766v3.7868156   C42.9020157,56.6124077,43.5465393,57.2573128,44.3387108,57.2573128z M43.6069756,52.0334206   c0-0.4035454,0.3281898-0.7317352,0.7317352-0.7317352h3.7870064c0.4035454,0,0.7317352,0.3281898,0.7317352,0.7317352v3.7868156   c0,0.4035454-0.3281898,0.7317352-0.7317352,0.7317352h-3.7870064c-0.4035454,0-0.7317352-0.3281898-0.7317352-0.7317352   V52.0334206z" /><path
    d="M52.5641327,57.2573128h3.7870102c0.7921715,0,1.4366951-0.6449051,1.4366951-1.4370766v-3.7868156   c0-0.7921715-0.6445236-1.4370766-1.4366951-1.4370766h-3.7870102c-0.7921677,0-1.4366951,0.6449051-1.4366951,1.4370766v3.7868156   C51.1274376,56.6124077,51.771965,57.2573128,52.5641327,57.2573128z M51.8323975,52.0334206   c0-0.4035454,0.3281937-0.7317352,0.7317352-0.7317352h3.7870102c0.4035454,0,0.7317352,0.3281898,0.7317352,0.7317352v3.7868156   c0,0.4035454-0.3281898,0.7317352-0.7317352,0.7317352h-3.7870102c-0.4035416,0-0.7317352-0.3281898-0.7317352-0.7317352   V52.0334206z" /><path
    d="M60.7895584,41.5898399h3.7870102c0.7921677,0,1.4366913-0.6449051,1.4366913-1.4370766v-3.7868195   c0-0.7921677-0.6445236-1.4370766-1.4366913-1.4370766h-3.7870102c-0.7921715,0-1.4366951,0.6449089-1.4366951,1.4370766v3.7868195   C59.3528633,40.9449348,59.9973869,41.5898399,60.7895584,41.5898399z M60.0578232,36.3659439   c0-0.4035416,0.3281898-0.7317352,0.7317352-0.7317352h3.7870102c0.4035416,0,0.7317352,0.3281937,0.7317352,0.7317352v3.7868195   c0,0.4035416-0.3281937,0.7317352-0.7317352,0.7317352h-3.7870102c-0.4035454,0-0.7317352-0.3281937-0.7317352-0.7317352   V36.3659439z" /><path
    d="M65.098114,42.7626038c-0.7921677,0-1.4366951,0.6449089-1.4366951,1.4370804v3.7868156   c0,0.7921715,0.6445274,1.4370766,1.4366951,1.4370766h3.7870102c0.7921677,0,1.4366913-0.6449051,1.4366913-1.4370766v-3.7868156   c0-0.7921715-0.6445236-1.4370804-1.4366913-1.4370804H65.098114z M69.6168594,44.1996841v3.7868156   c0,0.4035454-0.3281937,0.7317352-0.7317352,0.7317352H65.098114c-0.4035416,0-0.7317352-0.3281898-0.7317352-0.7317352v-3.7868156   c0-0.4035454,0.3281937-0.7317352,0.7317352-0.7317352h3.7870102   C69.2886658,43.4679489,69.6168594,43.7961388,69.6168594,44.1996841z" /><path
    d="M64.5765686,50.596344h-3.7870102c-0.7921715,0-1.4366951,0.6449051-1.4366951,1.4370766v3.7868156   c0,0.7921715,0.6445236,1.4370766,1.4366951,1.4370766h3.7870102c0.7921677,0,1.4366913-0.6449051,1.4366913-1.4370766v-3.7868156   C66.0132599,51.2412491,65.3687363,50.596344,64.5765686,50.596344z M65.3083038,55.8202362   c0,0.4035454-0.3281937,0.7317352-0.7317352,0.7317352h-3.7870102c-0.4035454,0-0.7317352-0.3281898-0.7317352-0.7317352   v-3.7868156c0-0.4035454,0.3281898-0.7317352,0.7317352-0.7317352h3.7870102c0.4035416,0,0.7317352,0.3281898,0.7317352,0.7317352   V55.8202362z" /><path
    d="M15.2240229,58.4300804h-3.7870083c-0.7921715,0-1.4366951,0.6449051-1.4366951,1.4370766v3.7868156   c0,0.7921715,0.6445236,1.4370766,1.4366951,1.4370766h3.7870083c0.7921705,0,1.4366941-0.6449051,1.4366941-1.4370766V59.867157   C16.660717,59.0749855,16.0161934,58.4300804,15.2240229,58.4300804z M15.9557581,63.6539726   c0,0.4035454-0.3281908,0.731739-0.7317352,0.731739h-3.7870083c-0.4035444,0-0.7317352-0.3281937-0.7317352-0.731739V59.867157   c0-0.4035454,0.3281908-0.7317352,0.7317352-0.7317352h3.7870083c0.4035444,0,0.7317352,0.3281898,0.7317352,0.7317352V63.6539726z   " /><path
    d="M23.4494457,58.4300804h-3.7870064c-0.7921715,0-1.4366951,0.6449051-1.4366951,1.4370766v3.7868156   c0,0.7921715,0.6445236,1.4370766,1.4366951,1.4370766h3.7870064c0.7921715,0,1.4366951-0.6449051,1.4366951-1.4370766V59.867157   C24.8861408,59.0749855,24.2416172,58.4300804,23.4494457,58.4300804z M24.181181,63.6539726   c0,0.4035454-0.3281898,0.731739-0.7317352,0.731739h-3.7870064c-0.4035454,0-0.7317352-0.3281937-0.7317352-0.731739V59.867157   c0-0.4035454,0.3281898-0.7317352,0.7317352-0.7317352h3.7870064c0.4035454,0,0.7317352,0.3281898,0.7317352,0.7317352V63.6539726z   " /><path
    d="M64.5765686,58.4300804H27.8878632c-0.7921715,0-1.4366951,0.6449051-1.4366951,1.4370766v3.7868156   c0,0.7921715,0.6445236,1.4370766,1.4366951,1.4370766h36.6887054c0.7921677,0,1.4366913-0.6449051,1.4366913-1.4370766V59.867157   C66.0132599,59.0749855,65.3687363,58.4300804,64.5765686,58.4300804z M65.3083038,63.6539726   c0,0.4035454-0.3281937,0.731739-0.7317352,0.731739H27.8878632c-0.4035454,0-0.7317352-0.3281937-0.7317352-0.731739V59.867157   c0-0.4035454,0.3281898-0.7317352,0.7317352-0.7317352h36.6887054c0.4035416,0,0.7317352,0.3281898,0.7317352,0.7317352V63.6539726   z" /><path
    d="M72.8019867,58.4300804h-3.7870026c-0.7921753,0-1.4366989,0.6449051-1.4366989,1.4370766v3.7868156   c0,0.7921715,0.6445236,1.4370766,1.4366989,1.4370766h3.7870026c0.7921753,0,1.4366989-0.6449051,1.4366989-1.4370766V59.867157   C74.2386856,59.0749855,73.594162,58.4300804,72.8019867,58.4300804z M73.5337219,63.6539726   c0,0.4035454-0.328186,0.731739-0.7317352,0.731739h-3.7870026c-0.4035492,0-0.7317352-0.3281937-0.7317352-0.731739V59.867157   c0-0.4035454,0.328186-0.7317352,0.7317352-0.7317352h3.7870026c0.4035492,0,0.7317352,0.3281898,0.7317352,0.7317352V63.6539726z" /><path
    d="M81.0274124,58.4300804h-3.7870026c-0.7921753,0-1.4366989,0.6449051-1.4366989,1.4370766v3.7868156   c0,0.7921715,0.6445236,1.4370766,1.4366989,1.4370766h3.7870026c0.7921753,0,1.4366989-0.6449051,1.4366989-1.4370766V59.867157   C82.4641113,59.0749855,81.8195877,58.4300804,81.0274124,58.4300804z M81.7591476,63.6539726   c0,0.4035454-0.328186,0.731739-0.7317352,0.731739h-3.7870026c-0.4035492,0-0.7317352-0.3281937-0.7317352-0.731739V59.867157   c0-0.4035454,0.328186-0.7317352,0.7317352-0.7317352h3.7870026c0.4035492,0,0.7317352,0.3281898,0.7317352,0.7317352V63.6539726z" /><path
    d="M89.2528381,58.4300804h-3.7870102c-0.7921677,0-1.4366913,0.6449051-1.4366913,1.4370766v3.7868156   c0,0.7921715,0.6445236,1.4370766,1.4366913,1.4370766h3.7870102c0.7921677,0,1.4366913-0.6449051,1.4366913-1.4370766V59.867157   C90.6895294,59.0749855,90.0450058,58.4300804,89.2528381,58.4300804z M89.9845734,63.6539726   c0,0.4035454-0.3281937,0.731739-0.7317352,0.731739h-3.7870102c-0.4035416,0-0.7317352-0.3281937-0.7317352-0.731739V59.867157   c0-0.4035454,0.3281937-0.7317352,0.7317352-0.7317352h3.7870102c0.4035416,0,0.7317352,0.3281898,0.7317352,0.7317352V63.6539726z   " /><path
    d="M89.2528381,50.596344h-3.7870102c-0.7921677,0-1.4366913,0.6449051-1.4366913,1.4370766v3.7868156   c0,0.7921715,0.6445236,1.4370766,1.4366913,1.4370766h3.7870102c0.7921677,0,1.4366913-0.6449051,1.4366913-1.4370766v-3.7868156   C90.6895294,51.2412491,90.0450058,50.596344,89.2528381,50.596344z M89.9845734,55.8202362   c0,0.4035454-0.3281937,0.7317352-0.7317352,0.7317352h-3.7870102c-0.4035416,0-0.7317352-0.3281898-0.7317352-0.7317352   v-3.7868156c0-0.4035454,0.3281937-0.7317352,0.7317352-0.7317352h3.7870102c0.4035416,0,0.7317352,0.3281898,0.7317352,0.7317352   V55.8202362z" /><path
    d="M89.2528381,42.7626038h-3.7870102c-0.7921677,0-1.4366913,0.6449089-1.4366913,1.4370804v3.7868156   c0,0.7921715,0.6445236,1.4370766,1.4366913,1.4370766h3.7870102c0.7921677,0,1.4366913-0.6449051,1.4366913-1.4370766v-3.7868156   C90.6895294,43.4075127,90.0450058,42.7626038,89.2528381,42.7626038z M89.9845734,47.9864998   c0,0.4035454-0.3281937,0.7317352-0.7317352,0.7317352h-3.7870102c-0.4035416,0-0.7317352-0.3281898-0.7317352-0.7317352   v-3.7868156c0-0.4035454,0.3281937-0.7317352,0.7317352-0.7317352h3.7870102c0.4035416,0,0.7317352,0.3281898,0.7317352,0.7317352   V47.9864998z" /><path
    d="M89.2528381,34.9288673h-3.7870102c-0.7921677,0-1.4366913,0.6449089-1.4366913,1.4370766v3.7868195   c0,0.7921715,0.6445236,1.4370766,1.4366913,1.4370766h3.7870102c0.7921677,0,1.4366913-0.6449051,1.4366913-1.4370766v-3.7868195   C90.6895294,35.5737762,90.0450058,34.9288673,89.2528381,34.9288673z M89.9845734,40.1527634   c0,0.4035416-0.3281937,0.7317352-0.7317352,0.7317352h-3.7870102c-0.4035416,0-0.7317352-0.3281937-0.7317352-0.7317352   v-3.7868195c0-0.4035416,0.3281937-0.7317352,0.7317352-0.7317352h3.7870102c0.4035416,0,0.7317352,0.3281937,0.7317352,0.7317352   V40.1527634z" /></g>
    <text x="0" y="115" fill="#000000" font-size="5px" font-weight="bold"
        font-family="'Helvetica Neue', Helvetica, Arial-Unicode, Arial, Sans-serif">Created by Dong Gyu Yang</text>
    <text x="0" y="120" fill="#000000" font-size="5px" font-weight="bold"
        font-family="'Helvetica Neue', Helvetica, Arial-Unicode, Arial, Sans-serif">from the Noun Project</text></svg>