<svg width="100" height="100" viewBox="0 0 100 100" fill="none" xmlns="http://www.w3.org/2000/svg">
<path d="M50.9062 6.02051C50.51 6.07712 50.1399 6.2513 49.8438 6.52051L30.0625 24.4893H18.1875C15.5437 24.4702 13.1232 25.1962 11.25 26.4893C9.37684 27.7823 7.99996 29.7754 8 32.1143L8.03125 86.6455C8.03684 88.9126 9.38196 90.8408 11.1875 92.083C12.993 93.3252 15.3084 94.0205 17.8438 94.0205H77.6875C80.6443 94.0205 83.3744 92.1102 84.4375 89.2705C86.1131 89.1355 87.7447 88.6664 89.125 87.708C90.8156 86.5341 92 84.464 92 82.0518V32.1143C92 30.1767 91.4306 28.2827 90.1875 26.833C88.9444 25.3833 86.9978 24.4957 84.8125 24.4893L74.9688 24.458L69.5 13.2705C69.3243 12.9058 69.042 12.603 68.6904 12.4021C68.3389 12.2012 67.9347 12.1117 67.5312 12.1455C67.2693 12.1684 67.0144 12.2428 66.7812 12.3643L60.4688 15.6143L52.7188 6.70801C52.4997 6.44918 52.2184 6.25028 51.9014 6.13002C51.5843 6.00976 51.2419 5.97207 50.9062 6.02051ZM51.0312 10.8643L56.8125 17.5205L26.5 33.1455L51.0312 10.8643ZM66.8125 16.8643L75.1875 33.9893L33.5625 34.0205L66.8125 16.8643ZM76.9375 28.458L84.8125 28.4893C86.0093 28.4933 86.6548 28.8733 87.1562 29.458C87.6577 30.0428 88 30.9495 88 32.1143V50.208H67.625C65.3026 50.208 63.5937 52.2455 63.5938 54.458V64.5205C63.5938 66.733 65.3027 68.8018 67.625 68.8018H88V82.0518C88 83.3393 87.6038 83.8991 86.8438 84.4268C86.3782 84.7501 85.6912 84.996 84.9062 85.1455V73.583C84.91 73.318 84.861 73.0549 84.7622 72.8089C84.6634 72.563 84.5167 72.3392 84.3306 72.1504C84.1445 71.9617 83.9227 71.8118 83.6782 71.7095C83.4337 71.6072 83.1713 71.5545 82.9062 71.5545C82.6412 71.5545 82.3788 71.6072 82.1343 71.7095C81.8898 71.8118 81.668 71.9617 81.4819 72.1504C81.2958 72.3392 81.1491 72.563 81.0503 72.8089C80.9515 73.0549 80.9025 73.318 80.9062 73.583V86.6455C80.9062 88.7361 79.2895 90.0205 77.6875 90.0205H17.8438C16.0464 90.0205 14.4574 89.5035 13.4375 88.8018C12.4176 88.1002 12.033 87.326 12.0312 86.6143L12 36.8643C13.4691 37.6267 15.2014 38.0208 17.0625 38.0205L78.5 37.9893C79.317 37.9891 79.7246 38.2783 80.1562 38.8643C80.5879 39.4502 80.9063 40.3989 80.9062 41.3643V44.5518C80.9025 44.8168 80.9515 45.0799 81.0503 45.3258C81.1491 45.5718 81.2958 45.7956 81.4819 45.9844C81.668 46.1731 81.8898 46.323 82.1343 46.4253C82.3788 46.5276 82.6412 46.5802 82.9062 46.5802C83.1713 46.5802 83.4337 46.5276 83.6782 46.4253C83.9227 46.323 84.1445 46.1731 84.3306 45.9844C84.5167 45.7956 84.6634 45.5718 84.7622 45.3258C84.861 45.0799 84.91 44.8168 84.9062 44.5518V41.3643C84.9063 39.6419 84.4254 37.9152 83.375 36.4893C82.5419 35.3584 81.2413 34.4734 79.7188 34.1455L76.9375 28.458ZM18.1562 28.4893C18.1667 28.4893 18.1771 28.4893 18.1875 28.4893H25.6875L19.5938 34.0205H17.0625C15.6044 34.0208 14.2945 33.6254 13.4375 33.083C12.5805 32.5407 12.2183 31.9153 12.1562 31.4268C12.1563 31.4163 12.1563 31.4059 12.1562 31.3955C12.3622 30.8533 12.7887 30.2831 13.5312 29.7705C14.6157 29.0219 16.2679 28.4756 18.1562 28.4893ZM67.625 54.208H88V64.8018H67.6562C67.6553 64.805 67.6458 64.8018 67.625 64.8018C67.6118 64.7801 67.5938 64.7056 67.5938 64.5205V54.458C67.5937 54.1617 67.7082 54.208 67.625 54.208ZM71.5 55.708C71.0029 55.7626 70.5443 56.0015 70.2146 56.3775C69.8849 56.7535 69.708 57.2393 69.7188 57.7393V61.2705C69.715 61.5355 69.764 61.7987 69.8628 62.0446C69.9616 62.2905 70.1083 62.5144 70.2944 62.7031C70.4805 62.8919 70.7023 63.0417 70.9468 63.144C71.1913 63.2463 71.4537 63.299 71.7188 63.299C71.9838 63.299 72.2462 63.2463 72.4907 63.144C72.7352 63.0417 72.957 62.8919 73.1431 62.7031C73.3292 62.5144 73.4759 62.2905 73.5747 62.0446C73.6735 61.7987 73.7225 61.5355 73.7188 61.2705V57.7393C73.7249 57.4545 73.6702 57.1718 73.5582 56.91C73.4463 56.6481 73.2797 56.4132 73.0697 56.2209C72.8596 56.0286 72.6109 55.8833 72.3402 55.7949C72.0695 55.7065 71.7831 55.6768 71.5 55.708Z" fill="black"/>
</svg>
